<?xml version="1.0" ?><!DOCTYPE svg  PUBLIC '-//W3C//DTD SVG 1.1//EN'  'http://www.w3.org/Graphics/SVG/1.1/DTD/svg11.dtd'><svg height="100%" style="fill-rule:evenodd;clip-rule:evenodd;stroke-linejoin:round;stroke-miterlimit:2;" version="1.1" viewBox="0 0 164 38" width="100%" xml:space="preserve" xmlns="http://www.w3.org/2000/svg" xmlns:serif="http://www.serif.com/" xmlns:xlink="http://www.w3.org/1999/xlink"><g transform="matrix(0.264583,0,0,0.264583,-105.9,-168.825)"><g id="Camada-1"><g id="g43"><g id="g32"><path d="M554.173,744.945L554.173,649.984L610.299,649.984L610.299,661.89L565.795,661.89L565.795,691.087L605.764,691.087L605.764,702.992L565.795,702.992L565.795,732.756L613.417,732.756L613.417,744.661L554.173,744.661L554.173,744.945Z" id="path12" style="fill:rgb(228,50,37);fill-rule:nonzero;"/><path d="M672.378,744.945L653.102,719.717L633.827,744.945L620.22,744.945L646.583,711.213L618.803,676.346L634.11,676.346L653.102,702.425L672.378,676.346L687.402,676.346L661.039,711.213L685.984,744.945L672.378,744.945Z" id="path14" style="fill:rgb(228,50,37);fill-rule:nonzero;"/><path d="M704.693,734.74L704.693,781.512L693.071,781.512L693.071,711.496C693.071,693.638 706.677,674.646 727.937,674.646C749.48,674.646 765.638,688.252 765.638,710.646C765.638,732.472 749.197,747.496 730.488,747.496C721.417,747.496 709.228,743.528 704.693,734.74ZM753.449,710.646C753.449,695.339 743.528,686.268 725.953,687.118C717.449,687.402 704.409,693.638 705.543,715.465C705.827,722.551 713.197,735.874 729.354,735.874C743.244,735.874 753.449,727.937 753.449,710.646Z" id="path16" style="fill:rgb(228,50,37);fill-rule:nonzero;"/><path d="M775.559,745.228L775.559,676.346L787.181,676.346L787.181,683.717C792.85,677.197 801.638,674.929 810.992,674.929L810.992,687.402C809.575,687.118 795.685,685.417 787.181,703.559L787.181,745.228L775.559,745.228Z" id="path18" style="fill:rgb(228,50,37);fill-rule:nonzero;"/><path d="M814.11,710.646C814.11,690.803 828.283,674.646 847.843,674.646C872.22,674.646 881.291,690.803 881.291,711.496L881.291,717.165L826.866,717.165C827.717,730.205 839.339,737.008 850.11,736.724C858.047,736.441 863.433,734.173 869.102,728.504L876.756,736.441C869.669,743.244 860.598,747.78 849.543,747.78C828.85,747.496 814.11,732.189 814.11,710.646ZM846.992,686.268C835.937,686.268 827.433,695.906 826.866,706.394L869.102,706.394C869.102,696.189 861.732,686.268 846.992,686.268Z" id="path20" style="fill:rgb(228,50,37);fill-rule:nonzero;"/><path d="M887.244,735.307L895.748,727.654C895.465,727.654 900,732.189 900.567,732.472C902.551,734.173 904.535,735.307 907.087,735.874C914.457,737.858 927.78,737.291 928.913,727.087C929.48,721.417 925.228,718.299 920.409,716.315C914.173,714.047 907.37,713.197 901.134,710.362C894.047,707.244 889.512,701.858 889.512,693.921C889.512,673.228 918.992,669.827 932.315,679.465C932.882,680.031 939.402,685.984 939.118,685.984L930.614,692.787C926.362,687.685 922.394,685.134 913.323,685.134C908.787,685.134 902.551,687.118 901.417,691.937C899.717,698.74 907.37,701.291 912.472,702.709C919.276,704.409 926.646,705.543 932.598,709.228C940.819,714.331 942.803,725.386 939.685,733.89C936.283,743.244 926.079,746.929 917.008,747.213C906.236,747.78 896.882,744.378 889.228,736.724C888.661,736.724 887.244,735.307 887.244,735.307Z" id="path22" style="fill:rgb(228,50,37);fill-rule:nonzero;"/><path d="M947.055,735.307L955.559,727.654C955.276,727.654 959.811,732.189 960.378,732.472C962.362,734.173 964.346,735.307 966.898,735.874C974.268,737.858 987.591,737.291 988.724,727.087C989.291,721.417 985.039,718.299 980.22,716.315C973.984,714.047 967.181,713.197 960.945,710.362C953.858,707.244 949.323,701.858 949.323,693.921C949.323,673.228 978.803,669.827 992.126,679.465C992.693,680.031 999.213,685.984 998.929,685.984L990.425,692.787C986.173,687.685 982.205,685.134 973.134,685.134C968.598,685.134 962.362,687.118 961.228,691.937C959.528,698.74 967.181,701.291 972.283,702.709C979.087,704.409 986.457,705.543 992.409,709.228C1000.63,714.331 1002.61,725.386 999.496,733.89C996.094,743.244 985.89,746.929 976.819,747.213C966.047,747.78 956.693,744.378 949.039,736.724C948.472,736.724 947.055,735.307 947.055,735.307Z" id="path24" style="fill:rgb(228,50,37);fill-rule:nonzero;"/><g id="g30"><path d="M1002.33,676.346L1002.33,668.976L999.78,668.976L999.78,667.559L1006.58,667.559L1006.58,668.976L1004.03,668.976L1004.03,676.346L1002.33,676.346Z" id="path26" style="fill:rgb(228,50,37);fill-rule:nonzero;"/><path d="M1015.09,676.346L1015.09,669.543L1012.53,676.346L1011.97,676.346L1009.42,669.543L1009.42,676.346L1008,676.346L1008,667.559L1010.27,667.559L1012.53,673.512L1014.8,667.559L1017.07,667.559L1017.07,676.346L1015.09,676.346Z" id="path28" style="fill:rgb(228,50,37);fill-rule:nonzero;"/></g></g><g id="g41"><path d="M475.37,744.945L466.866,722.268L420.945,722.268L412.441,744.945L400.252,744.945L437.102,649.984L450.425,649.984L486.992,744.945L475.37,744.945ZM443.339,663.591L426.047,710.646L462.047,710.646L443.339,663.591Z" id="path34" style="fill:rgb(247,151,29);fill-rule:nonzero;"/><rect height="94.961" id="path36" style="fill:rgb(247,151,29);fill-rule:nonzero;" width="11.906" x="494.646" y="649.984"/><rect height="67.181" id="path38" style="fill:rgb(247,151,29);fill-rule:nonzero;" width="11.906" x="524.409" y="677.764"/><path d="M547.654,655.937L547.654,654.803C538.583,654.52 531.213,647.15 530.929,638.079L529.228,638.079C528.945,647.15 521.575,654.52 512.504,654.803L512.504,655.937C521.575,656.22 528.945,663.591 529.228,672.661L530.929,672.661C531.213,663.591 538.583,656.22 547.654,655.937Z" id="XMLID_1_" style="fill:rgb(247,151,29);fill-rule:nonzero;"/></g></g></g></g></svg>