<svg xmlns="http://www.w3.org/2000/svg" viewBox="0 0 500 500"><g id="freepik--background-complete--inject-29"><path d="M463,233.44s0-.09,0-.24l0-.66c0-.6,0-1.45,0-2.53,0-2.22,0-5.41-.08-9.44l.15.15-48.65.1.25-.25h0v3.27c0,1.09,0,2.17,0,3.25v6.33l-.24-.24,34.67.11,10.23.07,2.77,0h.72l.26,0h-.22l-.7,0-2.71,0-10.18.07-34.84.11h-.24v-.24q0-3.1,0-6.33v-6.52h0l.25-.25,48.65.1h.15v.15c0,4.06-.06,7.29-.08,9.53,0,1.07,0,1.9,0,2.5v.63A.85.85,0,0,1,463,233.44Z" style="fill:#e0e0e0"></path><path d="M469.6,220.57a1.41,1.41,0,0,1,0-.25c0-.18,0-.41,0-.68,0-.63,0-1.49,0-2.58,0-2.26-.06-5.44-.1-9.36l.18.18-29.23.06.24-.24h0v6.61c0,2.15,0,4.24,0,6.24l-.23-.24,20.91.11,6.09.07,1.64,0,.59,0a3.28,3.28,0,0,1-.53,0l-1.6,0-6,.06-21.07.11h-.24v-.24c0-2,0-4.09,0-6.24v-6.61h0l.25-.25,29.23.07h.18v.18c0,4-.08,7.19-.1,9.47,0,1.07,0,1.92,0,2.54S469.61,220.58,469.6,220.57Z" style="fill:#e0e0e0"></path><rect x="50.68" y="96.72" width="48.65" height="12.87" style="fill:#ebebeb"></rect><path d="M78.76,123.15a1,1,0,0,1,0-.23v-.66c0-.61,0-1.45,0-2.53,0-2.23,0-5.42-.08-9.45l.15.15-48.65.1c.11-.11-.25.25.24-.25h0v12.85l-.24-.24,34.67.11,10.23.07,2.77,0,.72,0h.26l-.23,0h-.69l-2.71,0L65,123.29l-34.84.11h-.25V110.3h0c.5-.49.14-.14.25-.25l48.65.1h.15v.15c0,4.07-.06,7.29-.08,9.54,0,1.06,0,1.9,0,2.49,0,.26,0,.47,0,.64A1.23,1.23,0,0,1,78.76,123.15Z" style="fill:#e0e0e0"></path><rect x="85.42" y="285.66" width="48.65" height="12.87" style="fill:#ebebeb"></rect><path d="M113.5,312.09a1.17,1.17,0,0,1,0-.23v-.66c0-.61,0-1.45,0-2.54,0-2.22-.05-5.41-.08-9.44l.15.15-48.65.1c.11-.11-.25.24.24-.25h0v12.85l-.25-.24,34.68.11,10.23.07,2.77,0h.72l.26,0-.23,0h-.69l-2.72,0-10.18.07-34.84.11H64.6V299.24h0l.25-.25,48.65.1h.15v.15c0,4.06-.07,7.29-.09,9.53,0,1.07,0,1.9,0,2.5,0,.26,0,.47,0,.64A1.39,1.39,0,0,1,113.5,312.09Z" style="fill:#e0e0e0"></path><rect x="411.05" y="356.18" width="48.65" height="12.87" style="fill:#ebebeb"></rect><path d="M439.13,382.61a2.07,2.07,0,0,1,0-.23l0-.66c0-.61,0-1.45,0-2.53,0-2.23-.05-5.42-.09-9.45l.15.15-48.65.1.25-.25h0v6.52c0,2.15,0,4.26,0,6.33l-.24-.24,34.67.11,10.24.07,2.76,0,.73,0h.25s-.07,0-.22,0h-.7l-2.71,0-10.18.06-34.84.12h-.24v-.25q0-3.11,0-6.33v-6.52h0l.25-.25,48.65.1h.16v.15c0,4.07-.06,7.29-.08,9.54,0,1.06,0,1.9,0,2.49,0,.26,0,.47,0,.64S439.14,382.62,439.13,382.61Z" style="fill:#e0e0e0"></path><path d="M251.44,48.58a1,1,0,0,1,0-.23v-.66c0-.61,0-1.45,0-2.53,0-2.22-.05-5.42-.08-9.45l.15.15-48.65.1.25-.25h0V48.58l-.24-.24,34.67.11,10.23.07,2.77,0,.72,0h.26s-.07,0-.23,0l-.69,0-2.71,0-10.18.07-34.84.11h-.25V35.72h0l.25-.24,48.65.09h.15v.15c0,4.07-.06,7.29-.08,9.54,0,1.07,0,1.9,0,2.5l0,.63A1.23,1.23,0,0,1,251.44,48.58Z" style="fill:#e0e0e0"></path><path d="M258,35.71a.68.68,0,0,1,0-.24c0-.19,0-.41,0-.68,0-.64,0-1.5-.05-2.58,0-2.26-.05-5.45-.09-9.37L258,23l-29.23.07c-.23.22.3-.3.24-.25h0v6.62c0,2.16,0,4.24,0,6.24l-.24-.23,20.92.11,6.09.06,1.64,0,.59,0a3.43,3.43,0,0,1-.53,0l-1.6,0-6,.07L228.8,36h-.23v-.24c0-2,0-4.08,0-6.24V22.85h0l.25-.25,29.23.07h.18v.18c0,4-.07,7.19-.09,9.47,0,1.07,0,1.92-.05,2.54A8.58,8.58,0,0,1,258,35.71Z" style="fill:#e0e0e0"></path><path d="M75.51,418.93a2.07,2.07,0,0,1,0-.23l0-.66c0-.61,0-1.45,0-2.54,0-2.22,0-5.41-.09-9.44l.15.15-48.65.1.25-.25h0v6.52q0,3.22,0,6.33l-.24-.24,34.67.11,10.24.07,2.76,0,.73,0h.25s-.07,0-.22,0H74.6l-2.72,0-10.18.07-34.84.11h-.24V412.6c0-1.07,0-2.16,0-3.25v-3.27h0l.25-.25,48.65.1h.16v.15c0,4.07-.07,7.29-.09,9.53,0,1.07,0,1.91,0,2.5l0,.64C75.52,418.87,75.52,418.94,75.51,418.93Z" style="fill:#e0e0e0"></path><path d="M82.11,406.06s0-.09,0-.24,0-.41,0-.69c0-.63,0-1.49,0-2.58,0-2.25-.06-5.44-.1-9.36l.18.18-29.23.07.25-.25h0v3.33c0,1.11,0,2.2,0,3.28,0,2.15,0,4.24,0,6.24l-.23-.24,20.91.12,6.09.06,1.64,0,.59,0a3.28,3.28,0,0,1-.53,0l-1.59,0-6,.06-21.07.12h-.24v-.24c0-2,0-4.09,0-6.24v-6.61h0l.25-.25,29.23.07h.18v.18c0,4-.07,7.19-.1,9.47,0,1.07,0,1.92,0,2.54A6.65,6.65,0,0,1,82.11,406.06Z" style="fill:#e0e0e0"></path><rect x="396.74" y="48.6" width="48.65" height="12.87" style="fill:#ebebeb"></rect><path d="M424.82,75a1,1,0,0,1,0-.23v-.66c0-.61,0-1.45,0-2.54,0-2.22-.05-5.41-.08-9.44l.15.15-48.65.1c.11-.11-.25.24.24-.25h0V75l-.24-.24,34.67.11,10.23.07,2.77,0h.72l.26,0a.94.94,0,0,1-.23,0h-.69l-2.72,0L411,75.16l-34.84.11h-.25V62.18h0l.25-.25,48.65.1H425v.15c0,4.06-.07,7.29-.08,9.53,0,1.07,0,1.9,0,2.5,0,.26,0,.47,0,.64A1.23,1.23,0,0,1,424.82,75Z" style="fill:#e0e0e0"></path></g><g id="freepik--Floor--inject-29"><path d="M478,474.81c0,.15-102.09.27-228,.27S22,475,22,474.81s102.06-.26,228-.26S478,474.67,478,474.81Z" style="fill:#263238"></path></g><g id="freepik--Machine--inject-29"><polygon points="236.97 70.99 190.18 244.75 190.18 474.81 400.48 474.81 400.48 71.98 236.97 70.99" style="fill:#e0e0e0"></polygon><polygon points="197.28 248.93 233.29 109.18 253.21 135.23 227.16 237.5 197.28 248.93" style="fill:#e0e0e0"></polygon><polygon points="233.29 109.18 332.46 109.18 327.68 135.12 253.21 135.23 233.29 109.18" style="fill:#e0e0e0"></polygon><g style="opacity:0.30000000000000004"><polygon points="197.28 248.93 233.29 109.18 253.21 135.23 227.16 237.5 197.28 248.93"></polygon></g><g style="opacity:0.30000000000000004"><polygon points="233.29 109.18 332.46 109.18 327.68 135.12 253.21 135.23 233.29 109.18"></polygon></g><polygon points="227.16 237.5 309.25 237.5 327.68 135.12 253.21 135.23 227.16 237.5" style="fill:#e0e0e0"></polygon><polygon points="197.28 248.93 309.3 248.93 309.3 237.5 227.16 237.5 197.28 248.93" style="fill:#e0e0e0"></polygon><path d="M205.78,452.91l1.78,0,5.16,0,19.73-.05,71.89-.11-.2.2c0-44.9,0-103.23-.06-166.77h0l.26.26-98.56,0,.24-.24c-.05,48.88-.09,90.55-.12,120,0,14.74-.05,26.42-.06,34.43,0,4,0,7.08,0,9.17,0,1,0,1.83,0,2.37s0,.81,0,.81,0-.26,0-.78,0-1.32,0-2.34c0-2.08,0-5.15,0-9.12,0-8,0-19.66-.06-34.38,0-29.49-.07-71.21-.12-120.16v-.25H304.6v.26h0c0,63.54,0,121.87-.06,166.77v.21h-.2l-72-.11L212.64,453l-5.13,0Z" style="fill:#263238"></path><g style="opacity:0.30000000000000004"><polygon points="319.33 474.81 319.33 237.5 349.43 71.67 400.48 71.98 400.48 474.81 319.33 474.81"></polygon></g><polygon points="240.9 100.75 245.39 83.78 336.39 83.78 332.01 100.75 240.9 100.75" style="fill:#8C52FF"></polygon><path d="M197.28,248.93s.18-.09.53-.23l1.55-.63,6-2.34,21.77-8.42-.12.14c3.56-13.91,8.17-31.87,13.19-51.43,4.89-18.89,9.39-36.29,12.93-50l0,.17-14.45-19.65c-1.7-2.33-3-4.16-4-5.42-.43-.61-.77-1.09-1-1.43s-.33-.5-.33-.5.14.15.38.46.62.8,1.07,1.4l4,5.35L253.46,136l.06.07,0,.1c-3.51,13.7-8,31.11-12.83,50-5.06,19.55-9.7,37.5-13.3,51.4l0,.1-.1,0L205.4,246l-6,2.23-1.57.57C197.47,248.88,197.28,248.93,197.28,248.93Z" style="fill:#263238"></path><path d="M251.38,169.53c-.3,1.05-5.58,21.12-5.58,21.12h12.36l5.48-21.12Z" style="fill:#455a64"></path><polygon points="264.73 167.24 251.39 167.24 252.15 164.64 265.49 164.64 264.73 167.24" style="fill:#455a64"></polygon><path d="M265.21,165.87a43.48,43.48,0,0,1-6.67.26,43.59,43.59,0,0,1-6.67-.26,43.59,43.59,0,0,1,6.67-.26A43.48,43.48,0,0,1,265.21,165.87Z" style="fill:#263238"></path><polygon points="255.66 199.24 242.32 199.24 243.07 196.64 256.41 196.64 255.66 199.24" style="fill:#455a64"></polygon><path d="M256.14,197.87a42.11,42.11,0,0,1-6.67.26,42,42,0,0,1-6.67-.26,43.48,43.48,0,0,1,6.67-.26A43.59,43.59,0,0,1,256.14,197.87Z" style="fill:#263238"></path><polygon points="275.36 230.21 236.97 230.21 238.17 223.74 276.57 223.74 275.36 230.21" style="fill:#455a64"></polygon><path d="M274.07,227c0,.14-7.75.26-17.3.26s-17.31-.12-17.31-.26,7.75-.26,17.31-.26S274.07,226.83,274.07,227Z" style="fill:#263238"></path><polygon points="251.87 177.5 259.23 177.5 256.55 173.21 251.87 177.5" style="fill:#263238"></polygon><path d="M253.21,177.5s-2.66,9.51-2.66,9.51h5.18l2.14-9.51Z" style="fill:#263238"></path><polygon points="274.41 148.1 260.04 206.91 314.76 206.91 325.61 148.36 274.41 148.1" style="fill:#263238"></polygon><polygon points="280.56 153.92 269.44 200.52 315.93 200.6 324.61 153.73 280.56 153.92" style="fill:#455a64"></polygon><path d="M274.53,148.46a16.29,16.29,0,0,1,3.2,2.6,16.59,16.59,0,0,1,2.84,3,16.75,16.75,0,0,1-3.2-2.6A17.1,17.1,0,0,1,274.53,148.46Z" style="fill:#455a64"></path><path d="M269.17,200.21a20.55,20.55,0,0,1-4.24,3.93,20.29,20.29,0,0,1-4.94,3c-.08-.13,2.1-1.51,4.62-3.43S269.06,200.1,269.17,200.21Z" style="fill:#455a64"></path><g style="opacity:0.1"><polygon points="197.28 248.93 309.3 248.93 309.3 237.5 227.16 237.5 197.28 248.93"></polygon></g><path d="M290.24,173.91a8.42,8.42,0,0,0,1.24.41,11.62,11.62,0,0,1,1.54.47,2.73,2.73,0,0,1,1.05.76,2,2,0,0,1,.44,1.32,2.92,2.92,0,0,1-1,2.28,4.82,4.82,0,0,1-2.76,1.09l-.3,1.49h-1.64l.3-1.49a7.85,7.85,0,0,1-1.81-.35,4.86,4.86,0,0,1-1.39-.65l1.08-2a5.5,5.5,0,0,0,1.54.7,5.76,5.76,0,0,0,1.64.24,2.69,2.69,0,0,0,1.22-.22.7.7,0,0,0,.43-.62.6.6,0,0,0-.39-.54,7.19,7.19,0,0,0-1.23-.41,11.67,11.67,0,0,1-1.54-.5,2.92,2.92,0,0,1-1.06-.78,2,2,0,0,1-.45-1.36,2.92,2.92,0,0,1,1.06-2.33,4.87,4.87,0,0,1,2.88-1.06l.29-1.48H293l-.3,1.51a5.55,5.55,0,0,1,2.49.78l-1,2a4.66,4.66,0,0,0-1.22-.54,5.41,5.41,0,0,0-1.39-.18,2.53,2.53,0,0,0-1.27.26.8.8,0,0,0-.47.67A.6.6,0,0,0,290.24,173.91Z" style="fill:#fff"></path><path d="M299.1,173.91a8.64,8.64,0,0,0,1.25.41,12.1,12.1,0,0,1,1.54.47,2.77,2.77,0,0,1,1,.76,1.9,1.9,0,0,1,.44,1.32,3,3,0,0,1-1,2.28,4.88,4.88,0,0,1-2.76,1.09l-.31,1.49h-1.64l.3-1.49a8,8,0,0,1-1.81-.35,5.14,5.14,0,0,1-1.39-.65l1.08-2a6,6,0,0,0,3.19.94,2.67,2.67,0,0,0,1.21-.22.68.68,0,0,0,.43-.62.6.6,0,0,0-.39-.54,7,7,0,0,0-1.22-.41,11.87,11.87,0,0,1-1.55-.5,3,3,0,0,1-1.06-.78,2,2,0,0,1-.44-1.36,2.94,2.94,0,0,1,1.05-2.33,4.9,4.9,0,0,1,2.89-1.06l.29-1.48h1.64l-.3,1.51a5.55,5.55,0,0,1,2.49.78l-1,2a4.88,4.88,0,0,0-1.23-.54,5.35,5.35,0,0,0-1.39-.18,2.49,2.49,0,0,0-1.26.26.78.78,0,0,0-.47.67A.6.6,0,0,0,299.1,173.91Z" style="fill:#fff"></path><path d="M308,173.91a8.42,8.42,0,0,0,1.24.41,11.62,11.62,0,0,1,1.54.47,2.73,2.73,0,0,1,1.05.76,2,2,0,0,1,.44,1.32,3,3,0,0,1-1,2.28,4.88,4.88,0,0,1-2.77,1.09l-.3,1.49h-1.64l.3-1.49a7.85,7.85,0,0,1-1.81-.35,5,5,0,0,1-1.39-.65l1.08-2a5.63,5.63,0,0,0,1.54.7,5.78,5.78,0,0,0,1.65.24,2.67,2.67,0,0,0,1.21-.22.68.68,0,0,0,.43-.62.6.6,0,0,0-.39-.54,7.19,7.19,0,0,0-1.23-.41,11.67,11.67,0,0,1-1.54-.5,3,3,0,0,1-1.06-.78,2,2,0,0,1-.45-1.36,2.92,2.92,0,0,1,1.06-2.33,4.87,4.87,0,0,1,2.88-1.06l.29-1.48h1.64l-.3,1.51a5.5,5.5,0,0,1,2.49.78l-1,2a4.66,4.66,0,0,0-1.22-.54,5.41,5.41,0,0,0-1.39-.18,2.53,2.53,0,0,0-1.27.26.8.8,0,0,0-.47.67A.6.6,0,0,0,308,173.91Z" style="fill:#fff"></path><path d="M277.93,95.81h-4.08l-1.1,1.86h-2.86L276,88.1h2.67L281,97.67h-2.69Zm-.41-2-.64-3.11L275,93.82Z" style="fill:#fff"></path><path d="M284.83,90.24h-2.94l.43-2.14h8.58l-.44,2.14h-2.92l-1.49,7.43h-2.71Z" style="fill:#fff"></path><path d="M303,88.1l-1.89,9.57h-2.51l1-5-3.19,4.1h-1.19l-1.74-4.1-1,5H290l1.92-9.57h2.2l2.24,5.54,4.35-5.54Z" style="fill:#fff"></path><g style="opacity:0.30000000000000004"><path d="M294.19,359.54a4.61,4.61,0,1,1-4.61-4.61A4.6,4.6,0,0,1,294.19,359.54Z"></path></g><path d="M309.25,237.5c0,.14-18.34.26-41,.26s-41-.12-41-.26,18.34-.26,41-.26S309.25,237.36,309.25,237.5Z" style="fill:#263238"></path><path d="M328.62,135.14c0,.14-16.88.26-37.71.26s-37.72-.12-37.72-.26,16.88-.26,37.72-.26S328.62,135,328.62,135.14Z" style="fill:#263238"></path><path d="M232.82,266.58a5.81,5.81,0,0,1,0-.65c0-.46,0-1.07,0-1.84,0-1.62-.05-3.92-.08-6.8l.15.16c-7.84.06-20.31.1-34.33.1.11-.11-.27.26.25-.26h0v9.27l-.26-.25,24.45.11,7.23.08,2,0,.7,0a5.13,5.13,0,0,1-.63,0l-1.91,0-7.17.07-24.63.12h-.25V262c0-.78,0-1.56,0-2.35v-2.36h0c.52-.52.15-.14.27-.26,14,0,26.49,0,34.33.1H233v.15c0,2.92-.06,5.25-.08,6.9,0,.75,0,1.35,0,1.8A2.27,2.27,0,0,1,232.82,266.58Z" style="fill:#263238"></path><path d="M230.38,261.66c0,.14-6.43.26-14.37.26s-14.36-.12-14.36-.26,6.43-.26,14.36-.26S230.38,261.51,230.38,261.66Z" style="fill:#263238"></path></g><g id="freepik--speech-bubble--inject-29"><path d="M192.62,107.93c-6.06.35-10.15-.77-15.77-3.66l-9.5,3.22,2.74-9.6c-3.42-4.1-4.32-8.44-4.65-14.18a25.74,25.74,0,1,1,27.18,24.22Z" style="fill:#fff"></path><path d="M192.62,107.93a2.3,2.3,0,0,1,.45-.08l1.29-.17c.29,0,.61-.06,1-.12l1.13-.25,1.33-.3,1.46-.48a25.82,25.82,0,0,0,3.35-1.39l1.8-1c.62-.37,1.21-.83,1.85-1.26A25.51,25.51,0,0,0,216.64,83a25.32,25.32,0,0,0-.15-3.47c-.09-.59-.1-1.18-.24-1.77s-.25-1.17-.37-1.77A26.08,26.08,0,0,0,213,69.15a27.25,27.25,0,0,0-5-6,26.35,26.35,0,0,0-6.92-4.34,25.55,25.55,0,0,0-16.88-1.06,26.33,26.33,0,0,0-6.29,2.73,25.76,25.76,0,0,0-5.22,4.21l-.58.6-.52.64-1,1.28-.91,1.36-.44.67-.38.72c-.26.47-.51.95-.76,1.42s-.41,1-.61,1.47a23.31,23.31,0,0,0-1,3,30.15,30.15,0,0,0-.41,12,22.24,22.24,0,0,0,1.43,5.43,17.78,17.78,0,0,0,2.76,4.54l.08.09,0,.1c-1,3.44-1.91,6.63-2.77,9.6l-.24-.23,9.51-3.18.06,0,.06,0a37.82,37.82,0,0,0,6.37,2.7,24.31,24.31,0,0,0,5,1c1.4.12,2.47.11,3.2.11h.82a1.16,1.16,0,0,1,.28,0,23.33,23.33,0,0,1-4.31,0,23.6,23.6,0,0,1-5.09-.91,38.23,38.23,0,0,1-6.44-2.66h.12l-9.49,3.24-.33.12.09-.35q1.26-4.44,2.72-9.6l0,.19a18.62,18.62,0,0,1-2.86-4.64,22.86,22.86,0,0,1-1.47-5.53A30.79,30.79,0,0,1,166,75.68a25.78,25.78,0,0,1,1-3c.21-.5.42-1,.62-1.51s.52-1,.77-1.45l.39-.73.46-.69c.3-.46.61-.92.91-1.39l1.06-1.3.53-.66.59-.6A26.56,26.56,0,0,1,177.65,60a27.37,27.37,0,0,1,6.41-2.79,26,26,0,0,1,17.23,1.11,26.68,26.68,0,0,1,7.05,4.43,27.69,27.69,0,0,1,5.09,6.15,26.37,26.37,0,0,1,2.89,7c.13.61.25,1.21.38,1.8s.15,1.21.23,1.8a25.7,25.7,0,0,1-10.52,23.59c-.65.43-1.25.89-1.88,1.25l-1.83,1a27.16,27.16,0,0,1-3.4,1.35l-1.48.46-1.33.28-1.15.23c-.35,0-.68.07-1,.1l-1.31.11A2.49,2.49,0,0,1,192.62,107.93Z" style="fill:#263238"></path><path d="M195.62,86.71a5.74,5.74,0,0,1-3.33,1.5v2.14H190V88.28a12,12,0,0,1-2.74-.49,7.68,7.68,0,0,1-2.15-1L186.34,84a7.82,7.82,0,0,0,2.1,1,8.22,8.22,0,0,0,2.36.37c1.47,0,2.2-.37,2.2-1.1a.9.9,0,0,0-.63-.86,10.6,10.6,0,0,0-2-.59,19.31,19.31,0,0,1-2.55-.71,4.19,4.19,0,0,1-1.76-1.21,3.25,3.25,0,0,1-.74-2.24,3.89,3.89,0,0,1,1.2-2.85A5.72,5.72,0,0,1,190,74.32V72.19h2.32v2.09a11.08,11.08,0,0,1,2.11.38,8.07,8.07,0,0,1,1.81.76L195,78.26a7.85,7.85,0,0,0-3.75-1.05,3.19,3.19,0,0,0-1.66.34,1,1,0,0,0-.52.88.87.87,0,0,0,.62.81,10.75,10.75,0,0,0,2,.56,19.07,19.07,0,0,1,2.56.71A4.55,4.55,0,0,1,196,81.7a3.25,3.25,0,0,1,.74,2.24A3.82,3.82,0,0,1,195.62,86.71Z" style="fill:#263238"></path></g><g id="freepik--Plant--inject-29"><path d="M434.3,415.39a11.18,11.18,0,0,1,5.81,6.59,19.78,19.78,0,0,1,.78,8.92c-.66,5.79-3.95,11.63-7.49,16.26-4.88-4.25-6-11.68-6.33-15.48-.53-6,2.17-17.19,7.23-16.29" style="fill:#8C52FF"></path><path d="M439.07,456.72a9.58,9.58,0,0,1,3.09-9.1,12.69,12.69,0,0,1,9.38-2.93,5.34,5.34,0,0,1,4.11,1.85,4.08,4.08,0,0,1,.06,4.15,8.24,8.24,0,0,1-3.07,3c-4.22,2.65-8.8,4.44-13.57,3" style="fill:#8C52FF"></path><path d="M432.81,474.47a6.81,6.81,0,0,1,.18-1.19c.15-.83.35-1.91.59-3.21a33.49,33.49,0,0,1,3.32-10.27,20.54,20.54,0,0,1,7.37-7.84,14,14,0,0,1,3-1.33c.37-.12.67-.17.87-.22a1,1,0,0,1,.31,0,21,21,0,0,0-4,1.85,21.3,21.3,0,0,0-7.16,7.78,36.36,36.36,0,0,0-3.39,10.13c-.3,1.35-.54,2.44-.72,3.19A5.93,5.93,0,0,1,432.81,474.47Z" style="fill:#263238"></path><path d="M433,424.08a3.65,3.65,0,0,1,.06.52c0,.39.05.88.08,1.5.07,1.29.15,3.17.22,5.49.16,4.64.27,11.05.24,18.13s-.2,13.5-.39,18.14c-.1,2.32-.19,4.2-.27,5.49,0,.61-.08,1.11-.1,1.49a2,2,0,0,1-.07.52,3,3,0,0,1,0-.52c0-.39,0-.88,0-1.5,0-1.35.07-3.21.13-5.49.11-4.64.24-11.05.27-18.13s0-13.48-.11-18.12c0-2.28-.07-4.15-.09-5.5,0-.61,0-1.11,0-1.49A1.8,1.8,0,0,1,433,424.08Z" style="fill:#263238"></path><path d="M430.63,460.24a22.39,22.39,0,0,0-12.23-16.4c-1.63-.78-3.76-1.29-5.09-.08s-1.05,3.39-.39,5.08a19.13,19.13,0,0,0,17.59,11.88" style="fill:#8C52FF"></path><path d="M419.19,449.33a7.36,7.36,0,0,1,1,.45,10.93,10.93,0,0,1,1.17.63c.43.27,1,.54,1.48.93a17.25,17.25,0,0,1,1.71,1.28,22.21,22.21,0,0,1,1.81,1.65,24.78,24.78,0,0,1,3.44,4.42,24,24,0,0,1,2.27,5.13,19.89,19.89,0,0,1,.57,2.38,18.11,18.11,0,0,1,.3,2.11,16.12,16.12,0,0,1,.08,1.76,10.53,10.53,0,0,1,0,1.32,5.24,5.24,0,0,1-.13,1.13c-.09,0,.07-1.61-.21-4.17a17.92,17.92,0,0,0-.34-2.08,21.08,21.08,0,0,0-.6-2.33,23.7,23.7,0,0,0-5.62-9.4,24,24,0,0,0-1.76-1.65c-.56-.51-1.13-.92-1.65-1.31C420.62,450.08,419.15,449.41,419.19,449.33Z" style="fill:#263238"></path></g><g id="freepik--Character--inject-29"><path d="M110.86,415.23,84.25,439.56l30.11,33.26c3-3.07-6.2-26.05-6.2-26.05l16.62-16.08Z" style="fill:#455a64"></path><path d="M100.29,435.18a1.84,1.84,0,0,0-2.4.47,1.76,1.76,0,0,0,.44,2.38,1.92,1.92,0,0,0,2.54-.51,1.82,1.82,0,0,0-.73-2.42" style="fill:#fff"></path><path d="M84.25,439.56,87,437l27.73,33.09s.68,2.07-.52,2.84Z" style="fill:#263238"></path><path d="M108.82,447.16c-.17.14-1-.61-2.22-.93s-2.32-.14-2.39-.34,1.09-.82,2.59-.4S109,447.06,108.82,447.16Z" style="fill:#fff"></path><path d="M110.53,452c-.12.18-1-.27-2.22-.2s-2.06.57-2.2.4.61-1.1,2.09-1.15S110.68,451.81,110.53,452Z" style="fill:#fff"></path><path d="M108.15,457.71c-.2-.14.28-1,1.71-1.46,1.26-.4,2.31.05,2.23.24s-1,.15-2,.49S108.31,457.86,108.15,457.71Z" style="fill:#fff"></path><path d="M112.47,443.32c-.21.06-.66-.89-1.55-1.75s-1.83-1.31-1.77-1.52,1.26-.05,2.3,1S112.67,443.28,112.47,443.32Z" style="fill:#fff"></path><path d="M115.7,439c-.06.06-.75-.49-1.5-1.67a10.33,10.33,0,0,1-1-2.23,9.82,9.82,0,0,1-.36-1.42,2.78,2.78,0,0,1-.06-.85.94.94,0,0,1,.79-.86,1.2,1.2,0,0,1,1,.38,2.83,2.83,0,0,1,.48.7,7.94,7.94,0,0,1,.58,1.36,7.62,7.62,0,0,1,.38,2.44,3.79,3.79,0,0,1-.46,2.21c-.12,0,0-.86-.08-2.18a9.32,9.32,0,0,0-.5-2.25,8.86,8.86,0,0,0-.57-1.22c-.23-.43-.5-.74-.74-.69s-.12,0-.15.21a2.09,2.09,0,0,0,.05.63,10.39,10.39,0,0,0,.29,1.33,12.32,12.32,0,0,0,.84,2.17A15.28,15.28,0,0,1,115.7,439Z" style="fill:#fff"></path><path d="M115.28,439c-.08,0,.21-.88,1.21-1.9a7.32,7.32,0,0,1,2-1.42,7.11,7.11,0,0,1,1.39-.49,1.89,1.89,0,0,1,1.81.3,1,1,0,0,1,.16,1.12,2.79,2.79,0,0,1-.46.72,5.11,5.11,0,0,1-3.48,1.86,3,3,0,0,1-2.22-.43,20,20,0,0,0,2.14-.1,5,5,0,0,0,3-1.79c.3-.37.47-.76.31-.86a1.26,1.26,0,0,0-1.07-.09,8.32,8.32,0,0,0-1.28.4,8.45,8.45,0,0,0-2,1.18C115.83,438.29,115.38,439,115.28,439Z" style="fill:#fff"></path><path d="M104.43,438.68l.34,36.06,44.86-.19c-.28-4.29-23.52-12.79-23.52-12.79l.73-23.11Z" style="fill:#455a64"></path><path d="M112.22,459.87A1.83,1.83,0,0,0,111,462a1.74,1.74,0,0,0,2.06,1.26,1.91,1.91,0,0,0,1.32-2.22,1.82,1.82,0,0,0-2.29-1.08" style="fill:#fff"></path><path d="M104.77,474.81l-.06-3.86,43.15,1.47s2,.87,1.77,2.28Z" style="fill:#263238"></path><path d="M126.83,461.53c0,.22-1.1.32-2.17,1s-1.65,1.63-1.85,1.55.12-1.36,1.43-2.19S126.88,461.33,126.83,461.53Z" style="fill:#263238"></path><path d="M131.55,463.45c0,.22-.9.59-1.64,1.52s-.95,1.91-1.17,1.9-.36-1.24.58-2.38S131.54,463.24,131.55,463.45Z" style="fill:#263238"></path><path d="M134.24,469.07c-.2.05-.51-1,0-2.24s1.58-1.69,1.67-1.51-.53.83-1,1.82S134.46,469.05,134.24,469.07Z" style="fill:#263238"></path><path d="M126.41,456.24c-.09.2-1.09-.1-2.33,0s-2.2.49-2.32.3.81-1,2.27-1.06S126.52,456.07,126.41,456.24Z" style="fill:#263238"></path><path d="M103.38,233s-2.86,10.06-3.19,10.78c-2.94,6.52-10.71,22.64-10.71,22.64s-5.91,21-4.59,30.88,10.16,77.56,10.16,77.56-1.74,53.64,5.82,77.51l1.4,6.33,25.29-4.49h0l5.61-132.79,15.43-87.79Z" style="fill:#263238"></path><path d="M166.5,245S177.62,335.42,179,349.88s-51.14,91.55-51.14,91.55l-22.14-26.16,33.78-62.79-11.38-62.55,15-56.43,21.29.25Z" style="fill:#263238"></path><path d="M97,432.05a16.53,16.53,0,0,0,.18,1.84c.16,1.21.45,3,.87,5.28.84,4.58,2.21,11.22,4,19.52l0,.17.17,0,25.3-4.43.2,0v-.19c.71-17.36,1.55-38.11,2.45-60.36.93-23.94,1.8-46.14,2.51-64.35v0c1.89-14.63,3.46-26.73,4.56-35.2.53-4.2.94-7.5,1.23-9.78.13-1.11.23-2,.31-2.57s.08-.88.08-.88-.07.29-.16.87-.21,1.46-.37,2.56c-.32,2.27-.77,5.57-1.36,9.77-1.14,8.46-2.78,20.55-4.76,35.17h0c-.74,18.21-1.64,40.41-2.61,64.35-.87,22.25-1.68,43-2.36,60.36l.2-.23-25.28,4.55.21.14c-1.88-8.29-3.3-14.92-4.2-19.48-.45-2.29-.78-4.05-1-5.25-.1-.6-.16-1.06-.2-1.36A4.57,4.57,0,0,0,97,432.05Z" style="fill:#455a64"></path><path d="M118.83,76.52A8.26,8.26,0,0,0,117,71.46a11.09,11.09,0,0,0-4.75-3.68,9.86,9.86,0,0,0-12.9,12.4c1.22,3.54,5.68,7.14,9.4,7.51l5.62-4.27C116.71,81.84,118.77,79.38,118.83,76.52Z" style="fill:#263238"></path><path d="M103.72,68.83s.2-.2.66-.39a5.15,5.15,0,0,1,2.1-.36,6.6,6.6,0,0,1,3,.85,7.72,7.72,0,0,1,2.75,2.73,11.55,11.55,0,0,1,1.47,6.75,9,9,0,0,1-.51,2.82c-.1,0,.07-1.1.09-2.83A12.08,12.08,0,0,0,111.78,72a7.48,7.48,0,0,0-2.52-2.57,6.64,6.64,0,0,0-2.8-.91A8.61,8.61,0,0,0,103.72,68.83Z" style="fill:#455a64"></path><path d="M100.49,82.15a4,4,0,0,1-.07-2.37A8.28,8.28,0,0,1,103.54,75a13.1,13.1,0,0,1,5.25-2.25,6.86,6.86,0,0,1,2.34-.24,14.31,14.31,0,0,1-2.25.64,14.85,14.85,0,0,0-5,2.32,8.56,8.56,0,0,0-3.08,4.4A18.9,18.9,0,0,0,100.49,82.15Z" style="fill:#455a64"></path><path d="M128.22,77.54c-5.56-.84-10.4,1.38-15,4.59a27.89,27.89,0,0,0-10,13.28,27.56,27.56,0,0,0-.7,17.46,22,22,0,0,0,11.08,13.28c7.28,3.53,16.49,2.08,22.85-2.91s9.91-13.14,10.08-21.23A26.83,26.83,0,0,0,142,86.18a20.4,20.4,0,0,0-13.77-8.64" style="fill:#263238"></path><path d="M112.79,96.69c.77-2.14.42-4.5.7-6.76.61-5,4.53-9,9.11-11,4.26-1.87,9.52-1.58,14.72,0a19.7,19.7,0,0,1,9.35,5.86,15.57,15.57,0,0,1,3.12,13.92l-25.41-3.23a28.5,28.5,0,0,1-7.59,5.19,5.26,5.26,0,0,1-2.64.47,2.38,2.38,0,0,1-2-1.59C111.9,98.57,112.46,97.62,112.79,96.69Z" style="fill:#263238"></path><path d="M138,85.9,116,91a4.14,4.14,0,0,0-3.79,4.11L113.3,143a14.89,14.89,0,0,0,3.28,9l2.16,2.68c4.93,6.12,14.66,5.32,18.21-1.69a4.84,4.84,0,0,0,.48-1.26,8.52,8.52,0,0,0,.19-1.08,34.41,34.41,0,0,0,.26-7.26c.13-4.27.17-6,.17-6s9-1.31,11.14-13c1.05-5.82,1-15.4.62-23.24C149.51,94,145,85.3,138,85.9Z" style="fill:#b5675e"></path><path d="M146.61,110a1.51,1.51,0,0,1-1.49,1.49,1.43,1.43,0,0,1-1.52-1.39,1.51,1.51,0,0,1,1.48-1.49A1.45,1.45,0,0,1,146.61,110Z" style="fill:#263238"></path><path d="M147.63,106c-.19.19-1.31-.68-2.93-.71s-2.83.76-3,.56.11-.44.64-.81a4.2,4.2,0,0,1,2.4-.69,4,4,0,0,1,2.33.81C147.56,105.59,147.73,106,147.63,106Z" style="fill:#263238"></path><path d="M132.12,110a1.5,1.5,0,0,1-1.48,1.49,1.45,1.45,0,0,1-1.53-1.39,1.52,1.52,0,0,1,1.49-1.49A1.44,1.44,0,0,1,132.12,110Z" style="fill:#263238"></path><path d="M132.24,105.92c-.19.19-1.31-.67-2.93-.7s-2.83.75-3,.55.11-.44.64-.8a4.05,4.05,0,0,1,2.4-.69,3.92,3.92,0,0,1,2.33.8C132.17,105.48,132.34,105.84,132.24,105.92Z" style="fill:#263238"></path><path d="M137.33,118.15a11.06,11.06,0,0,1,2.64-.42c.41,0,.81-.11.88-.39a2.07,2.07,0,0,0-.25-1.23c-.37-1-.75-2.07-1.16-3.18-1.6-4.52-2.76-8.23-2.58-8.3s1.64,3.55,3.25,8.08l1.1,3.19a2.35,2.35,0,0,1,.18,1.63,1,1,0,0,1-.69.59,2.74,2.74,0,0,1-.7.09A10,10,0,0,1,137.33,118.15Z" style="fill:#263238"></path><path d="M138.05,137.36a29.84,29.84,0,0,1-15.64-4.52s3.78,8.21,15.56,7.36Z" style="fill:#894943"></path><path d="M136.56,122.05a2.91,2.91,0,0,0-2.6-1.14,2.65,2.65,0,0,0-1.86,1,1.7,1.7,0,0,0-.17,1.93,2,2,0,0,0,2.12.58,6.22,6.22,0,0,0,2.1-1.2,1.75,1.75,0,0,0,.47-.47.55.55,0,0,0,0-.6" style="fill:#894943"></path><path d="M132.53,119.18c.27,0,.23,1.75,1.71,3s3.36,1.12,3.37,1.37-.42.33-1.22.34a4.43,4.43,0,0,1-2.81-1,3.78,3.78,0,0,1-1.32-2.54C132.21,119.6,132.41,119.16,132.53,119.18Z" style="fill:#263238"></path><path d="M132.06,101.11c-.16.44-1.78.2-3.68.39s-3.46.68-3.71.28c-.1-.2.17-.6.8-1a6.45,6.45,0,0,1,5.63-.5C131.79,100.55,132.14,100.91,132.06,101.11Z" style="fill:#263238"></path><path d="M147.31,98.94c-.29.36-1.4,0-2.75-.09s-2.48.2-2.73-.19c-.12-.19.07-.56.58-.9a3.81,3.81,0,0,1,2.24-.55,3.71,3.71,0,0,1,2.17.78C147.29,98.38,147.44,98.76,147.31,98.94Z" style="fill:#263238"></path><path d="M108.67,93.35c2.17-6.78,12-16.14,19.12-15.64l11.33,6.83a10.92,10.92,0,0,1-7.44,8.35c-2,.61-4.42.77-5.61,2.5s-.52,4.32-1.65,6.13c-1.58,2.52-5.87,2.39-7,5.11-.52,1.19-.25,2.61-.79,3.79-.72,1.57-4.7,3.56-6.35,3s-1.64-3.32-2.18-4.79a7.86,7.86,0,0,1-.23-5.22C108.55,100.12,107.64,96.58,108.67,93.35Z" style="fill:#263238"></path><path d="M115.09,114.85c0-.88-1-3-1.82-3.11-2.3-.41-6.46-.31-6.62,5.55-.22,8,7.87,6.57,7.89,6.34S115,117.87,115.09,114.85Z" style="fill:#b5675e"></path><path d="M112.18,120.53s-.15.1-.39.2a1.37,1.37,0,0,1-1,0c-.84-.33-1.51-1.69-1.51-3.14a4.69,4.69,0,0,1,.44-2,1.64,1.64,0,0,1,1.08-1,.71.71,0,0,1,.81.41c.11.22.05.38.09.4s.18-.13.12-.46a.94.94,0,0,0-.3-.52,1.09,1.09,0,0,0-.77-.22,2,2,0,0,0-1.49,1.2,4.82,4.82,0,0,0-.54,2.22c0,1.62.79,3.15,1.94,3.51a1.48,1.48,0,0,0,1.28-.17C112.16,120.73,112.2,120.55,112.18,120.53Z" style="fill:#894943"></path><path d="M136.75,82.16c.8,3.24,5.82,7.33,8,9.83,4.24,4.76,5.09,6.35,5.24,17.17,1.89-3.77,3.32-7.46,3.1-11.67a17.47,17.47,0,0,0-4.85-11.39,13.58,13.58,0,0,0-11.53-3.94" style="fill:#263238"></path><path d="M101.76,104.85a14.54,14.54,0,0,1,1.77.39,18.21,18.21,0,0,0,4.82.64,8.34,8.34,0,0,0,3.23-.72,6.67,6.67,0,0,0,3-2.5c.79-1.18,1-2.81,1.7-4.37A5.87,5.87,0,0,1,119.88,95c1.62-.43,3.21,0,4.55-.53s2.08-2,2.68-3.31a11.89,11.89,0,0,1,2.23-3.64,9.38,9.38,0,0,1,2.9-2,8.15,8.15,0,0,1,4.88-.64,6.08,6.08,0,0,1,1.31.38,1.59,1.59,0,0,1,.43.21c0,.06-.62-.21-1.76-.36a8.31,8.31,0,0,0-4.72.8,9.08,9.08,0,0,0-2.74,2,11.56,11.56,0,0,0-2.1,3.53,12.52,12.52,0,0,1-1.1,2.07A4,4,0,0,1,124.6,95c-1.53.56-3.13.15-4.59.56a5.35,5.35,0,0,0-3.32,3c-.65,1.43-.9,3.12-1.77,4.42a7,7,0,0,1-3.18,2.63,8.73,8.73,0,0,1-3.38.69,17.07,17.07,0,0,1-4.88-.83c-.56-.17-1-.32-1.29-.43S101.75,104.87,101.76,104.85Z" style="fill:#455a64"></path><path d="M106.63,90.06a7.28,7.28,0,0,1,1-2.2,17.61,17.61,0,0,1,8.85-7.41,7,7,0,0,1,2.34-.59,26.56,26.56,0,0,0-7,4C108.29,86.69,106.79,90.16,106.63,90.06Z" style="fill:#8C52FF"></path><polygon points="192.6 191.38 159.64 204.77 160.9 220.79 194.71 206.09 197.65 197.7 192.6 191.38" style="fill:#b5675e"></polygon><polygon points="184.21 193.31 186.67 213.66 165.97 226.44 164.12 199.86 184.21 193.31" style="fill:#455a64"></polygon><path d="M146.14,152.12c.7,1.39,16.43,23.32,18.05,33.56,1.09,6.89,2.86,30.57,3.7,46.08.11,2,1.85,4.13,1.51,5.72-1.23,5.71-4.2,5.16-8.05,4.83l-43-1.22L99.24,243.2l9.57-28.54s-8.26-37.52-9.57-38.68S104.73,144,104.73,144l7.76-.71s14.39,7.05,21.72,5.92a5,5,0,0,0,4.23-4.24Z" style="fill:#455a64"></path><polyline points="211.07 192.83 211.07 191.38 230.96 191.38 230.96 192.83" style="fill:#263238"></polyline><path d="M192.6,191.38l12-3.86,12.71,1.57s.35,1.82-2,2.29-7.76,0-7.76,0-.11,6.16-7.44,7.9l-4.76.58Z" style="fill:#b5675e"></path><path d="M211.79,191.58s.54-.08.9,1.45a7.93,7.93,0,0,1-.45,3.73s.62,2.28-.45,3.1l-1.06.82s-.07,3.46-1.13,4.39-9.85,4-9.85,4l-6.65-2.72,2.53-7.39,10.51-6.52,1.45-1.05Z" style="fill:#b5675e"></path><path d="M210.67,199.86a5.92,5.92,0,0,1-1.26-.82c-.76-.56-1.84-1.38-3.1-2.36l.25,0a1.87,1.87,0,0,0-1,1.32,3.2,3.2,0,0,0,.42,1.9,7.63,7.63,0,0,0,.7,1.1l.64.8-.94-.4a3.79,3.79,0,0,0-3.39.24l-.24.15-.09-.27a3.57,3.57,0,0,0-2-2.17c-.68-.3-1.12-.29-1.12-.35a2,2,0,0,1,1.22.11,3.7,3.7,0,0,1,2.29,2.28l-.33-.12a4.18,4.18,0,0,1,3.84-.35l-.3.41a6.73,6.73,0,0,1-.77-1.19,3.63,3.63,0,0,1-.46-2.23,2.28,2.28,0,0,1,1.32-1.64l.14-.07.11.09c1.24,1,2.27,1.88,3,2.51A5.72,5.72,0,0,1,210.67,199.86Z" style="fill:#894943"></path><path d="M206.45,196.49a2.78,2.78,0,0,1-.88-1.41,2.26,2.26,0,0,1,.17-1.89,3.29,3.29,0,0,1,1.92-1.34l.13,0,.11.1.24.22a33.74,33.74,0,0,1,4.25,4.16,34.25,34.25,0,0,1-4.6-3.78l-.24-.21.24.06a2.92,2.92,0,0,0-1.65,1.08,2,2,0,0,0-.22,1.55C206.15,195.92,206.54,196.45,206.45,196.49Z" style="fill:#894943"></path><path d="M71.27,166.5c.86,1,63.58,46.58,63.58,46.58l-31.32,61.64s-21.53-10-39.36-20.08-36-35.16-36-35.16Z" style="fill:#8C52FF"></path><path d="M104,144.44c-.66-.09-11.73-1.26-18.4,13.58-3.54,7.88-14.38,32.49-16.51,38.47-1.42,4-5.84,19.8-1.71,26.45,3.77,6.07,7.93,7.13,16.66,5.24,9.08-2,30.7-14.88,30.7-14.88l-9.45-19.37-6.23,2.17,5.47-13.35c3.53-10,5.7-23.21,5.83-23.35S115.48,146,104,144.44Z" style="fill:#455a64"></path><path d="M98.77,222.09s.09-.08.28-.2l.85-.5,3.24-1.86,11.5-6.44-.1.31-6.28-12.81L105.07,194l.3.14c-6.91,2.13-12.89,4.14-17.12,5.64-2.12.75-3.8,1.4-5,1.83l-1.32.51a2.68,2.68,0,0,1-.47.15s.14-.1.43-.24l1.29-.58c1.14-.49,2.8-1.18,4.91-2,4.22-1.6,10.18-3.67,17.09-5.83l.21-.06.09.19c1,2.09,2.1,4.28,3.2,6.54L115,213.19l.1.21-.2.1-11.59,6.27-3.3,1.75-.88.44A1.14,1.14,0,0,1,98.77,222.09Z" style="fill:#263238"></path><path d="M145,182.32l6-10.12a3.68,3.68,0,0,1,4.81-1.42l14.86,8.31a3.73,3.73,0,0,1,1.43,5.82l-18.88,29.61a3.67,3.67,0,0,1-4.9,1.23l-14.48-8.14a3.68,3.68,0,0,1-1.32-5.14Z" style="fill:#263238"></path><path d="M102.35,144.38l2.14-.76a7.35,7.35,0,0,1,4.7-.14,6.75,6.75,0,0,1,3,1.94c5.78,6.52,5.86,25.23,6,29.73s2.08,30.39,2.08,30.39h-7.62s.84-35.67.93-41C113.87,147.44,102.35,144.38,102.35,144.38Z" style="fill:#8C52FF"></path><path d="M108.93,174a19.07,19.07,0,0,1-1.12,3.23c-.76,2-1.9,4.64-3.26,7.55s-2.7,5.51-3.71,7.35A20,20,0,0,1,99.08,195a26.7,26.7,0,0,1,1.43-3.1c.93-1.88,2.21-4.49,3.57-7.4s2.54-5.55,3.39-7.47A25.85,25.85,0,0,1,108.93,174Z" style="fill:#263238"></path><path d="M207.93,192.41c-.05,0-.43-.42-.55-1.34a3.67,3.67,0,0,1,.15-1.6,1.16,1.16,0,0,1,.3-.48.7.7,0,0,1,.68-.11,3.79,3.79,0,0,1,.88.56,11.49,11.49,0,0,1,3.38,3.46c-.12.1-1.57-1.48-3.69-3a4.38,4.38,0,0,0-.74-.5c-.1,0-.14,0-.19,0a.78.78,0,0,0-.17.26,4,4,0,0,0-.24,1.41C207.77,191.88,208,192.38,207.93,192.41Z" style="fill:#894943"></path><path d="M207.86,191.19s-.14.18-.49.15-.78-.2-1,.25a12.44,12.44,0,0,1-2.31,3.68,11.39,11.39,0,0,1-3.52,2.61,4.34,4.34,0,0,1-1.73.55,18.66,18.66,0,0,0,4.87-3.51,16,16,0,0,0,2.38-3.53.84.84,0,0,1,.78-.39,3.38,3.38,0,0,1,.57.14C207.69,191.22,207.84,191.15,207.86,191.19Z" style="fill:#894943"></path><path d="M167.51,233.13a6.32,6.32,0,0,1-.23-1.36c-.12-.87-.26-2.14-.43-3.71-.32-3.15-.7-7.5-1-12.31s-.48-9.17-.56-12.33c0-1.58-.06-2.85-.05-3.74a7.78,7.78,0,0,1,.05-1.37,6.33,6.33,0,0,1,.15,1.37c.06,1,.13,2.23.22,3.73.19,3.25.44,7.55.71,12.31s.63,9.05.86,12.3c.1,1.5.19,2.75.26,3.73A8.06,8.06,0,0,1,167.51,233.13Z" style="fill:#263238"></path><path d="M123.72,206.73a3.77,3.77,0,0,1-.34.63l-1,1.76-3.92,6.43L105.5,236.74C100.49,245,96,252.51,92.65,258l-3.91,6.43q-.66,1.08-1.08,1.74a3.37,3.37,0,0,1-.41.59,4.89,4.89,0,0,1,.32-.64c.25-.46.59-1.05,1-1.79.92-1.59,2.2-3.8,3.76-6.52,3.21-5.48,7.69-13,12.72-21.33s9.66-15.75,13.06-21.12l4-6.34c.47-.7.85-1.27,1.13-1.71A3.69,3.69,0,0,1,123.72,206.73Z" style="fill:#263238"></path><path d="M133.38,204.44a3,3,0,0,1,.28-.57c.22-.41.52-.93.87-1.57l3.32-5.74c2.87-4.87,6.77-11.5,11.09-18.82l1.62-2.72a8.34,8.34,0,0,1,1.89-2.51,3.31,3.31,0,0,1,1.46-.67,2.54,2.54,0,0,1,1.57.26c.88.44,1.7.9,2.52,1.35,3.23,1.8,6.1,3.49,8.5,4.93,1.2.72,2.28,1.39,3.21,2a6.46,6.46,0,0,1,1.25,1,2.48,2.48,0,0,1,.6,1.2,3.39,3.39,0,0,1-.19,1.81,1.57,1.57,0,0,1-.3.56s.08-.2.2-.59a3.73,3.73,0,0,0,.1-1.74,2.31,2.31,0,0,0-.6-1.07,6.42,6.42,0,0,0-1.22-.89c-.94-.58-2-1.22-3.24-1.92-2.41-1.4-5.3-3.06-8.54-4.83-.81-.44-1.65-.9-2.5-1.32a2.26,2.26,0,0,0-2.5.36,7.93,7.93,0,0,0-1.76,2.37L149.39,178l-11.23,18.75-3.45,5.65-1,1.52A2.76,2.76,0,0,1,133.38,204.44Z" style="fill:#e0e0e0"></path><path d="M105.55,194.45s16.49-8,21.27-8.79,20.11-.75,20.11-.75,8.78,3.48,10.12,6.47,0,4.11,0,4.11a4.54,4.54,0,0,1-.23,3c-.38.75-2.08,1.05-2.08,1.05l.17.73s0,.61-1.42,1.16A2.39,2.39,0,0,1,151,201l-4.54-2-5.61-.67,4.76,1.7s4.14,1.51,4.65,2.72a1.21,1.21,0,0,1-1.47,1.63c-1.33-.22-18.89-3.34-18.89-3.34l-2.89-.8s-13.81,9.49-13.8,9.54S105.55,194.45,105.55,194.45Z" style="fill:#b5675e"></path><path d="M140.88,193.63a5.3,5.3,0,0,1,2.31-.4,13.34,13.34,0,0,1,5.54,1.21,14.46,14.46,0,0,1,4.65,3.23,6,6,0,0,1,1.36,1.91c-.07,0-.59-.68-1.62-1.65a16.78,16.78,0,0,0-4.6-3,15.4,15.4,0,0,0-5.34-1.31C141.77,193.53,140.9,193.72,140.88,193.63Z" style="fill:#894943"></path><path d="M157.12,195.75c-.06.06-.75-.55-2-1.36s-3-1.93-4.9-3.21a22.4,22.4,0,0,0-2.69-1.69,8.57,8.57,0,0,0-2.48-.56c-1.48-.12-2.4,0-2.41,0a5.31,5.31,0,0,1,2.43-.33,7.69,7.69,0,0,1,2.65.48,19.31,19.31,0,0,1,2.79,1.7c1.9,1.28,3.61,2.44,4.82,3.34A6.72,6.72,0,0,1,157.12,195.75Z" style="fill:#894943"></path></g></svg>